<?xml version="1.0" encoding="utf-8"?>
<svg width="64.000244px" height="93.00012px" viewBox="0 0 64.000244 93.00012" version="1.1" xmlns:xlink="http://www.w3.org/1999/xlink" xmlns="http://www.w3.org/2000/svg">
  <g id="ic_quote">
    <path d="M0 61.0001C0 43.327 14.3269 29.0001 32 29.0001C49.6731 29.0001 64 43.327 64 61.0001C64 78.6732 49.6731 93.0001 32 93.0001C14.3269 93.0001 0 78.6732 0 61.0001Z" id="Ellipse" fill="#FFFFFF" fill-rule="evenodd" stroke="none" />
    <g id="" fill="#1F28EA" fill-opacity="0.8" transform="matrix(-1 -2.2967631E-06 2.2967631E-06 -1 64 80.00012)">
      <path d="M19.9 29.6246L19.9 25.2246L22.452 25.2246Q25.62 25.2246 25.62 22.0566L25.62 19.2406L24.388 19.2406Q21.836 19.2406 20.12 17.6566Q18.404 16.0726 18.404 13.6966Q18.404 11.1446 20.12 9.56059Q21.836 7.97659 24.388 7.97659Q26.94 7.97659 28.612 9.64859Q30.284 11.3206 30.284 13.8726L30.284 22.0566Q30.284 29.6246 22.716 29.6246L19.9 29.6246ZM35.124 29.6246L35.124 25.2246L37.676 25.2246Q40.844 25.2246 40.844 22.0566L40.844 19.2406L39.612 19.2406Q37.06 19.2406 35.344 17.6566Q33.628 16.0726 33.628 13.6966Q33.628 11.1446 35.344 9.56059Q37.06 7.97659 39.612 7.97659Q42.164 7.97659 43.836 9.64859Q45.508 11.3206 45.508 13.8726L45.508 22.0566Q45.508 29.6246 37.94 29.6246L35.124 29.6246Z" />
    </g>
  </g>
</svg>