<?xml version="1.0" standalone="no"?>
<!DOCTYPE svg PUBLIC "-//W3C//DTD SVG 20010904//EN"
 "http://www.w3.org/TR/2001/REC-SVG-20010904/DTD/svg10.dtd">
<svg version="1.0" xmlns="http://www.w3.org/2000/svg"
 width="96.000000pt" height="96.000000pt" viewBox="0 0 96.000000 96.000000"
 preserveAspectRatio="xMidYMid meet">

<g transform="translate(0.000000,96.000000) scale(0.100000,-0.100000)"
fill="#ffffff" stroke="none">
<path d="M381 867 c-47 -15 -281 -241 -281 -272 0 -29 24 -48 49 -40 11 3 57
47 103 97 46 50 101 104 122 120 77 56 141 31 250 -97 50 -59 56 -71 56 -111
0 -42 -5 -49 -77 -125 -62 -65 -81 -79 -102 -77 -44 5 -39 41 13 99 64 71 72
133 23 186 -26 29 -79 46 -115 38 -33 -7 -181 -153 -206 -202 -22 -45 -21
-135 3 -181 27 -51 168 -188 213 -207 45 -18 87 -19 142 -3 31 9 70 41 164
132 121 119 138 146 110 174 -7 7 -19 12 -27 12 -8 0 -69 -54 -136 -120 -125
-124 -156 -143 -209 -129 -37 10 -173 143 -193 188 -23 54 -9 87 75 174 75 76
97 88 120 65 20 -20 14 -43 -24 -79 -46 -44 -64 -79 -64 -126 0 -71 60 -120
133 -110 33 5 53 19 120 84 87 86 116 136 117 201 0 67 -24 110 -113 201 -113
114 -171 138 -266 108z"/>
</g>
</svg>
