<?xml version="1.0" standalone="no"?>
<!DOCTYPE svg PUBLIC "-//W3C//DTD SVG 20010904//EN"
 "http://www.w3.org/TR/2001/REC-SVG-20010904/DTD/svg10.dtd">
<svg version="1.0" xmlns="http://www.w3.org/2000/svg"
 width="512.000000pt" height="512.000000pt" viewBox="0 0 512.000000 512.000000"
 preserveAspectRatio="xMidYMid meet">
<metadata>
Created by potrace 1.14, written by Peter Selinger 2001-2017
</metadata>
<g transform="translate(0.000000,512.000000) scale(0.100000,-0.100000)"
fill="#000000" stroke="none">
<path d="M1223 4470 c-12 -5 -29 -20 -38 -34 -16 -25 -60 -198 -79 -311 -2
-11 -20 -93 -39 -181 -20 -89 -38 -172 -41 -185 -3 -13 -19 -87 -36 -164 -17
-77 -44 -203 -61 -280 -16 -77 -36 -167 -44 -200 -8 -33 -16 -71 -19 -85 -6
-35 -94 -440 -101 -465 -5 -19 -220 -1014 -231 -1065 -7 -35 33 -92 72 -105
19 -6 199 -10 462 -9 l431 1 -6 -31 c-3 -17 -12 -60 -19 -96 -8 -36 -17 -76
-20 -90 -3 -14 -16 -77 -30 -140 -14 -63 -28 -126 -30 -139 -3 -13 -11 -49
-18 -80 -20 -86 -8 -129 44 -156 25 -13 91 -15 437 -14 224 1 419 4 432 8 43
12 61 52 97 217 19 87 46 211 60 274 14 63 28 124 30 135 2 11 15 74 29 140
14 66 30 141 35 167 13 67 34 103 67 116 17 7 157 13 363 16 190 2 357 9 385
15 28 6 62 14 77 16 15 3 65 17 110 31 434 136 719 470 812 951 20 104 16 344
-8 428 -59 211 -200 381 -395 480 -68 34 -180 72 -240 81 -18 3 -43 8 -55 10
-11 3 -43 5 -71 5 l-50 0 -2 50 c-8 177 -129 399 -283 518 -72 56 -215 125
-315 153 -79 22 -86 22 -885 25 -467 1 -814 -2 -827 -7z"/>
</g>
</svg>
